<?xml version="1.0" encoding="UTF-8" standalone="no"?>
<!-- Created with Inkscape (http://www.inkscape.org/) -->

<svg
   width="134.03821mm"
   height="17.651672mm"
   viewBox="0 0 134.03821 17.651672"
   version="1.1"
   id="svg5"
   xml:space="preserve"
   inkscape:version="1.2.1 (9c6d41e4, 2022-07-14)"
   sodipodi:docname="arborsuite.svg"
   xmlns:inkscape="http://www.inkscape.org/namespaces/inkscape"
   xmlns:sodipodi="http://sodipodi.sourceforge.net/DTD/sodipodi-0.dtd"
   xmlns="http://www.w3.org/2000/svg"
   xmlns:svg="http://www.w3.org/2000/svg"><sodipodi:namedview
     id="namedview7"
     pagecolor="#ffffff"
     bordercolor="#666666"
     borderopacity="1.0"
     inkscape:showpageshadow="2"
     inkscape:pageopacity="0.0"
     inkscape:pagecheckerboard="0"
     inkscape:deskcolor="#d1d1d1"
     inkscape:document-units="mm"
     showgrid="false"
     inkscape:zoom="0.36482843"
     inkscape:cx="2471.0246"
     inkscape:cy="-789.41217"
     inkscape:window-width="1280"
     inkscape:window-height="684"
     inkscape:window-x="0"
     inkscape:window-y="25"
     inkscape:window-maximized="0"
     inkscape:current-layer="layer1" /><defs
     id="defs2"><rect
       x="-563.76807"
       y="1327.8835"
       width="843.32251"
       height="386.71695"
       id="rect1011" /></defs><g
     inkscape:label="Layer 1"
     inkscape:groupmode="layer"
     id="layer1"
     transform="translate(-444.35243,440.91631)"><g
       id="g1009"
       transform="translate(-20.705851,-112.39234)"
       inkscape:export-filename="../../../../../../Users/ashley/Documents/arbor_suite_logo.svg"
       inkscape:export-xdpi="300"
       inkscape:export-ydpi="300"><path
         id="path1003"
         style="fill:#ffffff;fill-opacity:1;stroke-width:0.00750838"
         d="m 473.79374,-328.31878 c -1.5404,-0.003 -3.05702,0.40245 -4.40035,1.18406 -1.24217,0.72275 -2.29423,1.7502 -3.04605,2.97488 -0.24756,0.40328 -0.48896,0.88437 -0.66508,1.32537 -0.83407,2.08851 -0.8319,4.41509 0.006,6.49534 0.89183,2.21402 2.64254,3.96117 4.85624,4.8463 0.91135,0.36439 1.86035,0.56886 2.86215,0.61661 v -4e-5 c 0.16466,0.008 0.73843,0.003 0.89282,-0.007 1.23326,-0.0839 2.32286,-0.37717 3.39348,-0.91347 2.41053,-1.20749 4.12488,-3.46216 4.64684,-6.11138 0.22095,-1.12146 0.21987,-2.26335 -0.004,-3.38668 -0.29368,-1.47909 -0.96445,-2.85456 -1.94996,-3.99848 -1.40707,-1.63321 -3.38397,-2.69167 -5.52462,-2.95797 -0.35617,-0.0444 -0.71289,-0.0666 -1.06838,-0.0671 z m 4.08728,2.48705 h 5e-5 c 0.0441,0 0.13916,0.0323 0.17261,0.0585 0.0316,0.0249 0.088,0.1137 0.18233,0.28686 0.0146,0.0268 0.0535,0.0962 0.0864,0.15395 0.0329,0.0578 0.0673,0.11863 0.0763,0.13516 0.018,0.0327 0.11097,0.19751 0.13678,0.24236 0.009,0.0153 0.0319,0.0567 0.0515,0.0918 0.0542,0.0978 0.0675,0.12166 0.0842,0.15015 0.0317,0.0545 0.0965,0.16968 0.10544,0.18773 0.005,0.0103 0.0186,0.0346 0.03,0.0541 0.0114,0.0193 0.0374,0.065 0.0577,0.10138 0.0203,0.0363 0.0437,0.0779 0.052,0.0924 0.008,0.0145 0.0224,0.0399 0.0316,0.0563 0.0234,0.0422 0.13677,0.24391 0.14988,0.26657 0.0172,0.0298 0.66683,1.18381 0.67937,1.20692 0.021,0.0386 0.12366,0.22142 0.14407,0.25642 0.0111,0.0191 0.0326,0.0583 0.0479,0.087 0.0153,0.0288 0.0407,0.0739 0.0567,0.10029 0.016,0.0264 0.0291,0.0494 0.0291,0.0514 0,0.002 0.0146,0.0278 0.0325,0.0574 0.0179,0.0296 0.0454,0.0776 0.0612,0.1065 0.0158,0.0289 0.0371,0.0678 0.0476,0.0863 0.0105,0.0185 0.0244,0.0439 0.031,0.0563 0.007,0.0124 0.0259,0.0461 0.0427,0.075 0.0168,0.0289 0.0417,0.0728 0.0554,0.0977 0.0351,0.0638 0.0452,0.0817 0.17133,0.30537 0.14588,0.25866 0.14765,0.26288 0.14765,0.34791 0,0.0586 -0.003,0.0732 -0.0206,0.10976 -0.0294,0.0598 -0.083,0.11441 -0.13697,0.13956 l -0.0451,0.0211 -0.48949,0.004 c -0.36756,0.003 -0.49175,0.006 -0.49855,0.0128 -0.007,0.007 0.18198,0.39144 0.85854,1.74587 0.47716,0.95524 0.87195,1.74846 0.87734,1.76273 0.005,0.0143 0.0101,0.0548 0.0101,0.0901 6e-5,0.0526 -0.003,0.0701 -0.0172,0.097 -0.0439,0.0836 -0.0903,0.12802 -0.16172,0.1549 l -0.0498,0.0187 h -1.39598 c -0.76759,0 -1.40102,0.002 -1.40754,0.004 -0.0108,0.004 -0.0119,0.0905 -0.0119,0.90182 v 0.5703 h -2.2e-4 v 1.4485 c -9e-5,0.24925 -0.004,0.41798 -0.008,0.43852 -0.004,0.0183 -0.0217,0.0626 -0.0387,0.0983 -0.036,0.0753 -0.0531,0.0885 -0.15594,0.12159 l -0.0637,0.0205 -3.75758,-2.2e-4 c -3.07318,-2.2e-4 -3.76333,-0.002 -3.78902,-0.0102 -0.0173,-0.005 -0.0581,-0.0226 -0.0907,-0.0385 -0.0692,-0.0335 -0.0833,-0.0523 -0.11556,-0.15337 l -0.0203,-0.0638 -6.7e-4,-0.37958 v -2.22684 h -2.2e-4 c -9e-5,-0.83083 0.004,-0.76891 -0.0679,-0.76891 -0.0706,0 -0.47753,-0.0372 -0.53151,-0.0485 -0.0278,-0.006 -0.0775,-0.0129 -0.11048,-0.0155 -0.033,-0.003 -0.0869,-0.011 -0.12001,-0.0184 -0.033,-0.007 -0.0786,-0.0159 -0.10136,-0.0188 -0.0228,-0.003 -0.0664,-0.0116 -0.0971,-0.0195 -0.0307,-0.008 -0.0671,-0.0144 -0.0808,-0.0144 -0.0137,0 -0.0443,-0.006 -0.0681,-0.0146 -0.0238,-0.008 -0.0626,-0.018 -0.0864,-0.0223 -0.0238,-0.004 -0.049,-0.0108 -0.0563,-0.0146 -0.007,-0.004 -0.0331,-0.0111 -0.0577,-0.0161 -0.0623,-0.0129 -0.40546,-0.12704 -0.496,-0.16508 -0.0722,-0.0303 -0.0985,-0.0411 -0.18018,-0.074 -0.0206,-0.008 -0.0544,-0.0243 -0.075,-0.0356 -0.0206,-0.0113 -0.0595,-0.0321 -0.0863,-0.0463 -0.13113,-0.0694 -0.29432,-0.16963 -0.39041,-0.23988 -0.0739,-0.0541 -0.24152,-0.18576 -0.26276,-0.20648 -0.0103,-0.0101 -0.0508,-0.0457 -0.0901,-0.0793 -0.0771,-0.066 -0.0809,-0.0697 -0.16946,-0.17234 -0.0826,-0.0958 -0.15119,-0.18913 -0.26916,-0.36652 -0.0522,-0.0785 -0.15235,-0.2734 -0.17362,-0.33791 -0.005,-0.0165 -0.0206,-0.0587 -0.0333,-0.0939 -0.028,-0.076 -0.0594,-0.17908 -0.0684,-0.22353 -0.004,-0.0175 -0.0104,-0.0394 -0.0152,-0.0485 -0.004,-0.009 -0.0132,-0.0488 -0.0185,-0.0881 -0.005,-0.0394 -0.0146,-0.0953 -0.0205,-0.12417 -0.0186,-0.0904 -0.0306,-0.41132 -0.0206,-0.54906 0.0118,-0.15974 0.0482,-0.34559 0.0994,-0.50593 0.0697,-0.21899 0.10387,-0.30181 0.18311,-0.44488 0.0465,-0.0839 0.0525,-0.0937 0.12565,-0.20465 0.15368,-0.233 0.4179,-0.50486 0.60715,-0.62469 0.0207,-0.0131 0.0434,-0.0287 0.0502,-0.0343 0.0198,-0.0167 0.12009,-0.0765 0.18449,-0.11009 0.0704,-0.0367 0.0793,-0.0436 0.079,-0.0597 -2.2e-4,-0.007 -0.031,-0.0444 -0.0685,-0.0836 -0.082,-0.0858 -0.15282,-0.16563 -0.18306,-0.20647 -0.13058,-0.17628 -0.25274,-0.37098 -0.27384,-0.43646 -0.005,-0.016 -0.0118,-0.0324 -0.0148,-0.0367 -0.0205,-0.0281 -0.0804,-0.24095 -0.0896,-0.31917 -0.03,-0.25207 -0.009,-0.50285 0.0571,-0.67955 0.087,-0.23282 0.0898,-0.2391 0.14751,-0.33383 0.11017,-0.18088 0.19036,-0.28309 0.31939,-0.40717 0.18237,-0.17538 0.357,-0.28998 0.63378,-0.41579 0.15332,-0.0698 0.3794,-0.13714 0.50093,-0.14945 0.0269,-0.003 0.0742,-0.0101 0.10513,-0.0158 0.14846,-0.0285 0.47656,-0.0268 0.6494,0.004 0.11736,0.0204 0.23168,0.0448 0.27402,0.0583 0.0186,0.006 0.0541,0.0171 0.0788,0.025 0.0664,0.0207 0.11983,0.0408 0.19144,0.0717 0.0351,0.0151 0.0723,0.0302 0.0826,0.0337 0.0104,0.004 0.0374,0.0163 0.0601,0.0287 0.0227,0.0123 0.0615,0.033 0.0864,0.046 0.0467,0.0245 0.15776,0.0906 0.24636,0.14676 0.0757,0.0479 0.12856,0.11278 0.15166,0.18593 l 0.0186,0.059 v 3.44909 c 0,3.06318 8.9e-4,3.45012 0.0113,3.45847 0.0137,0.0113 0.19332,0.004 0.32282,-0.0117 0.0454,-0.006 0.13154,-0.014 0.19141,-0.0183 0.0599,-0.004 0.13592,-0.0127 0.16894,-0.0185 0.033,-0.006 0.0837,-0.0127 0.1126,-0.0153 0.0731,-0.006 0.22513,-0.0317 0.31971,-0.0534 0.0436,-0.0101 0.0861,-0.0181 0.0941,-0.0181 0.008,0 0.0348,-0.005 0.0594,-0.0121 0.0246,-0.006 0.0701,-0.0182 0.10104,-0.0258 0.12657,-0.0308 0.15674,-0.0391 0.21775,-0.0598 0.21635,-0.0735 0.3464,-0.1271 0.51354,-0.21147 0.12699,-0.064 0.2973,-0.1685 0.35182,-0.21569 0.0133,-0.0116 0.0497,-0.0402 0.0806,-0.0638 0.0632,-0.048 0.27747,-0.25774 0.31178,-0.30524 0.0123,-0.017 0.0344,-0.0467 0.0491,-0.0661 0.0647,-0.0846 0.15773,-0.23676 0.17778,-0.29057 0.004,-0.0123 0.019,-0.0477 0.032,-0.0786 0.0497,-0.1183 0.0842,-0.24257 0.12157,-0.4393 0.0153,-0.0804 0.0171,-0.11114 0.0163,-0.28558 -8.9e-4,-0.1537 -0.004,-0.20422 -0.0128,-0.23653 -0.006,-0.0227 -0.014,-0.0596 -0.0167,-0.0824 -0.003,-0.0228 -0.0111,-0.065 -0.0186,-0.0938 -0.008,-0.0289 -0.0161,-0.0706 -0.0188,-0.0927 -0.004,-0.0336 -0.0625,-0.2103 -0.0858,-0.26031 -0.004,-0.008 -0.0177,-0.0404 -0.0309,-0.0713 -0.0416,-0.0982 -0.10279,-0.22313 -0.13047,-0.26638 -0.0147,-0.023 -0.0267,-0.0435 -0.0267,-0.0455 0,-0.005 -0.11016,-0.16615 -0.14687,-0.21413 -0.0322,-0.0422 -0.20916,-0.23602 -0.2485,-0.27233 -0.10642,-0.0982 -0.26577,-0.22328 -0.34531,-0.271 -0.0354,-0.0213 -0.0951,-0.0604 -0.13835,-0.0908 -0.0803,-0.0564 -0.11585,-0.2174 -0.0702,-0.31734 0.0217,-0.0475 0.0469,-0.081 0.0776,-0.10316 0.0373,-0.0269 0.14533,-0.0979 0.21808,-0.14337 0.0917,-0.0572 0.23447,-0.19734 0.29391,-0.28843 0.0229,-0.0351 0.0541,-0.0831 0.0692,-0.10645 0.0152,-0.0235 0.0398,-0.0708 0.0546,-0.10514 0.0148,-0.0343 0.0321,-0.0743 0.0384,-0.0888 0.0243,-0.0557 0.0479,-0.13357 0.0556,-0.18397 0.004,-0.0289 0.0145,-0.0776 0.0223,-0.10821 0.0121,-0.0472 0.0142,-0.0836 0.014,-0.2403 -2.2e-4,-0.24663 -0.0109,-0.3423 -0.0529,-0.47371 -0.007,-0.0228 -0.0157,-0.0548 -0.0187,-0.0713 -0.0201,-0.10922 -0.13058,-0.32856 -0.26081,-0.51813 -0.0545,-0.0793 -0.22901,-0.26648 -0.2486,-0.26665 -0.004,-4e-5 -0.0293,-0.0161 -0.055,-0.0357 -0.0258,-0.0196 -0.0612,-0.0463 -0.0787,-0.0594 -0.0175,-0.0131 -0.0816,-0.0495 -0.1421,-0.0809 -0.1027,-0.0533 -0.17052,-0.0778 -0.26156,-0.0948 -0.19971,-0.0372 -0.21672,-0.0392 -0.32282,-0.0385 -0.11649,8.9e-4 -0.30603,0.0226 -0.41181,0.0473 -0.0347,0.008 -0.0904,0.0149 -0.1251,0.0149 -0.0693,2.3e-4 -0.0959,-0.0101 -0.16492,-0.0608 -0.0496,-0.0369 -0.0588,-0.0479 -0.0837,-0.10133 -0.0182,-0.0392 -0.021,-0.0545 -0.0213,-0.11642 -2.2e-4,-0.0641 0.002,-0.0754 0.0211,-0.11196 0.0274,-0.0521 0.0877,-0.11083 0.13727,-0.13351 0.0213,-0.0101 0.066,-0.0226 0.099,-0.0284 0.0331,-0.006 0.0734,-0.0141 0.0896,-0.0184 0.0162,-0.004 0.0645,-0.0116 0.10763,-0.0159 0.043,-0.004 0.10653,-0.0129 0.14114,-0.0188 0.0933,-0.0161 0.24454,-0.0134 0.42506,0.008 0.15286,0.0179 0.24029,0.0343 0.3416,0.0641 0.0268,0.008 0.0589,0.0167 0.0713,0.0195 0.0452,0.0103 0.34848,0.15498 0.40301,0.19232 0.12465,0.0854 0.29793,0.22932 0.38193,0.31734 0.13733,0.1439 0.35941,0.49151 0.41232,0.64539 0.0875,0.25441 0.13273,0.41102 0.13903,0.48096 0.003,0.0289 0.0102,0.083 0.017,0.12018 0.0161,0.0889 0.0148,0.42728 -0.002,0.50684 -0.006,0.0286 -0.0145,0.0895 -0.0188,0.13544 -0.007,0.0769 -0.0175,0.11992 -0.0679,0.28131 -0.0307,0.0987 -0.0459,0.13525 -0.0961,0.23086 -0.0802,0.153 -0.10059,0.18687 -0.1717,0.28479 -0.0362,0.0499 -0.0761,0.10496 -0.0884,0.12218 -0.0186,0.026 -0.1126,0.1199 -0.20836,0.20836 -0.0385,0.0355 -0.0309,0.0495 0.0713,0.13127 0.11201,0.0896 0.18472,0.16212 0.33396,0.3332 0.11932,0.13676 0.13767,0.1609 0.23938,0.31503 0.034,0.0517 0.071,0.10572 0.0821,0.12017 0.0343,0.0448 0.21035,0.41213 0.23209,0.48436 0.0112,0.0371 0.0281,0.0929 0.0377,0.12387 0.089,0.28891 0.11808,0.48129 0.11781,0.78093 -8e-5,0.14829 -0.003,0.21241 -0.0115,0.25158 -0.006,0.0289 -0.0135,0.0779 -0.0162,0.10889 -0.003,0.031 -0.0111,0.08 -0.0186,0.10886 -0.008,0.0289 -0.0158,0.066 -0.0183,0.0826 -0.003,0.0165 -0.0109,0.0486 -0.0184,0.0713 -0.008,0.0228 -0.0229,0.0717 -0.0341,0.1089 -0.0211,0.07 -0.11667,0.29275 -0.14063,0.32779 -0.007,0.011 -0.0137,0.0219 -0.0137,0.0243 0,0.0187 -0.1007,0.17907 -0.17027,0.27109 -0.21197,0.28038 -0.30723,0.37885 -0.52794,0.54567 -0.25782,0.19487 -0.43368,0.29422 -0.78829,0.44535 -0.0469,0.0199 -0.3224,0.11238 -0.35659,0.11958 -0.03,0.006 -0.13248,0.0328 -0.18394,0.0475 -0.04,0.0115 -0.11364,0.0281 -0.20649,0.0468 -0.0248,0.005 -0.067,0.0142 -0.0939,0.0205 -0.0269,0.006 -0.0691,0.0146 -0.0938,0.0184 -0.0248,0.004 -0.0823,0.0136 -0.12762,0.0217 -0.0454,0.008 -0.091,0.0147 -0.10137,0.0147 -0.0103,-10e-6 -0.0577,0.006 -0.10548,0.0144 -0.0477,0.008 -0.12373,0.0166 -0.16895,0.0193 -0.0452,0.003 -0.14301,0.0113 -0.21733,0.019 -0.0743,0.008 -0.18784,0.0163 -0.25226,0.019 -0.0645,0.003 -0.12183,0.008 -0.12761,0.0114 -0.007,0.004 -0.0101,0.13599 -0.0115,0.65887 h -2.2e-4 v 0.0492 c -2.3e-4,0.1057 -6.7e-4,0.19918 -8.9e-4,0.33887 -8.9e-4,0.52321 -8.9e-4,0.78216 8.9e-4,0.91681 v 0.68868 c -0.006,0.12376 -0.004,0.39909 0.006,0.40923 0.0131,0.0131 6.89842,0.0131 6.91155,0 0.007,-0.007 0.009,-0.0803 0.009,-0.28466 v -0.27568 l -9e-5,-2.2e-4 v -0.70109 l 9e-5,-8e-5 v -0.88057 c 0,-0.0404 -8e-5,-0.0618 -9e-5,-0.0988 v -0.16182 h -2.2e-4 c -6.6e-4,-0.48508 -0.003,-0.62243 -0.0101,-0.62831 -0.007,-0.006 -0.40009,-0.009 -1.42455,-0.0103 l -1.41451,-0.002 -0.039,-0.0206 c -0.0504,-0.0266 -0.10879,-0.0854 -0.13436,-0.13519 -0.031,-0.0607 -0.0338,-0.13837 -0.008,-0.21243 0.011,-0.031 0.40661,-0.82935 0.87909,-1.77392 0.57921,-1.15801 0.85655,-1.71988 0.85142,-1.725 -0.005,-0.005 -0.18193,-0.009 -0.49709,-0.0113 -0.54169,-0.004 -0.50216,-6.8e-4 -0.58103,-0.0545 -0.0482,-0.0329 -0.0594,-0.0463 -0.0864,-0.10321 -0.0187,-0.0394 -0.0238,-0.061 -0.0264,-0.11266 l -0.004,-0.0638 0.13242,-0.29286 c 0.0728,-0.16107 0.142,-0.31314 0.15369,-0.33792 0.0117,-0.0248 0.028,-0.0602 0.0363,-0.0787 0.0254,-0.0574 0.081,-0.17906 0.12175,-0.26656 0.0116,-0.0248 0.0841,-0.18498 0.16125,-0.35598 0.12438,-0.27575 0.17439,-0.38584 0.21025,-0.46252 0.006,-0.0124 0.0188,-0.0412 0.0288,-0.0638 0.0101,-0.0228 0.031,-0.0683 0.0463,-0.10135 0.0154,-0.033 0.0669,-0.14625 0.11438,-0.25156 0.0948,-0.21018 0.11706,-0.25933 0.14805,-0.32664 0.0115,-0.0248 0.0275,-0.0602 0.0358,-0.0788 0.032,-0.0723 0.0549,-0.12209 0.12399,-0.27036 0.0202,-0.0434 0.0552,-0.12076 0.0775,-0.17201 0.0466,-0.10664 0.0775,-0.14383 0.14663,-0.17654 0.065,-0.0307 0.1143,-0.0384 0.18027,-0.0282 0.0869,0.0135 0.14307,0.0588 0.19255,0.15524 0.0187,0.0365 0.0238,0.0568 0.0265,0.10716 0.003,0.0551 8.9e-4,0.0675 -0.0167,0.10888 -0.0111,0.0258 -0.0231,0.0523 -0.0267,0.0589 -0.004,0.007 -0.0848,0.18559 -0.1805,0.3976 -0.0957,0.212 -0.18414,0.40761 -0.19653,0.43467 -0.0305,0.0667 -0.0534,0.11694 -0.0734,0.16183 -0.0313,0.07 -0.0657,0.14538 -0.11636,0.25533 -0.009,0.0206 -0.0247,0.0544 -0.0336,0.075 -0.0152,0.035 -0.022,0.0499 -0.06,0.13328 -0.0637,0.13959 -0.0935,0.20555 -0.1129,0.24969 -0.009,0.0206 -0.0243,0.0544 -0.0339,0.075 -0.0203,0.044 -0.048,0.10505 -0.0716,0.15771 -0.009,0.0206 -0.0244,0.0544 -0.0338,0.075 -0.009,0.0206 -0.0246,0.0545 -0.0338,0.0751 -0.009,0.0206 -0.0249,0.0553 -0.0346,0.0769 -0.0101,0.0217 -0.0267,0.0588 -0.0375,0.0826 -0.0108,0.0238 -0.0258,0.0568 -0.0333,0.0733 -0.008,0.0165 -0.022,0.0486 -0.0323,0.0713 -0.0101,0.0228 -0.0325,0.0716 -0.0498,0.10858 -0.0172,0.037 -0.0319,0.0758 -0.0325,0.0863 l -8.9e-4,0.0191 0.49548,0.004 0.49554,0.004 0.0509,0.0215 c 0.0575,0.0243 0.11264,0.0785 0.14617,0.14368 0.0253,0.049 0.0312,0.12688 0.0143,0.1853 -0.006,0.0228 -0.40218,0.82145 -0.87902,1.77483 -0.65734,1.31427 -0.86504,1.7358 -0.85886,1.74325 0.0123,0.0147 2.2829,0.0146 2.29519,-2.2e-4 0.006,-0.007 0.009,-1.08717 0.0103,-4.05303 l 0.002,-4.0429 0.0197,-0.0413 c 0.0448,-0.0937 0.15631,-0.16521 0.25794,-0.16521 z m -8.8578,1.24695 -8e-5,4e-5 c -0.0812,-2.2e-4 -0.10464,0.003 -0.14466,0.013 -0.0324,0.008 -0.0811,0.0187 -0.10792,0.0233 -0.11384,0.0192 -0.34918,0.0984 -0.42299,0.14217 -0.0255,0.0151 -0.0521,0.0309 -0.0592,0.035 -0.0998,0.0585 -0.14421,0.0894 -0.22357,0.15555 -0.0517,0.043 -0.11221,0.1 -0.13467,0.12658 -0.0225,0.0266 -0.0444,0.0518 -0.0488,0.0559 -0.004,0.004 -0.0136,0.0161 -0.0203,0.0267 -0.007,0.0106 -0.0289,0.0377 -0.0493,0.06 -0.0342,0.0378 -0.0635,0.0882 -0.12745,0.2194 -0.0136,0.028 -0.0248,0.0552 -0.0248,0.0604 0,0.005 -0.009,0.0415 -0.0187,0.0806 -0.0135,0.0511 -0.021,0.10768 -0.027,0.20234 -0.009,0.1503 -0.004,0.20964 0.0316,0.33756 0.0269,0.0968 0.12132,0.28896 0.18614,0.37875 0.0832,0.11518 0.26986,0.30965 0.36695,0.38219 0.0177,0.0132 0.0514,0.0386 0.075,0.0563 0.0713,0.0536 0.13417,0.12023 0.15617,0.16573 0.0175,0.0363 0.0205,0.0514 0.02,0.10624 -6.8e-4,0.087 -0.0193,0.13498 -0.0754,0.1934 -0.0488,0.0509 -0.073,0.063 -0.20432,0.10253 -0.0945,0.0285 -0.13572,0.0436 -0.2086,0.0765 -0.0218,0.0101 -0.0413,0.0179 -0.0432,0.0179 -0.0142,0 -0.19144,0.10942 -0.25322,0.15633 -0.0995,0.0755 -0.29139,0.26513 -0.35486,0.35057 -0.0974,0.13114 -0.20571,0.31543 -0.24042,0.40924 -0.005,0.0145 -0.0218,0.0548 -0.0365,0.0896 -0.0147,0.0348 -0.0303,0.083 -0.0346,0.10697 -0.004,0.024 -0.0124,0.0563 -0.0178,0.0719 -0.005,0.0155 -0.0124,0.0468 -0.0153,0.0695 -0.003,0.0226 -0.0101,0.0589 -0.0161,0.0807 -0.0438,0.15742 -0.0415,0.52644 0.004,0.76007 0.0148,0.0749 0.0688,0.24786 0.1102,0.35309 0.0761,0.19349 0.20588,0.39161 0.38843,0.59325 0.0755,0.0834 0.20656,0.20844 0.24837,0.23708 0.0237,0.0162 0.0523,0.0362 0.0636,0.0445 0.0199,0.0145 0.11783,0.0823 0.14104,0.0976 0.10525,0.0698 0.15369,0.0976 0.26513,0.15263 0.13637,0.0674 0.15223,0.0746 0.24713,0.11398 0.0309,0.0129 0.063,0.0265 0.0713,0.0303 0.0184,0.009 0.13185,0.0445 0.33033,0.10504 0.0248,0.008 0.0569,0.0159 0.0713,0.0186 0.0145,0.003 0.0481,0.0111 0.075,0.0187 0.10522,0.0299 0.17117,0.0454 0.22247,0.0525 0.0294,0.004 0.0627,0.0109 0.074,0.0151 0.0317,0.012 0.28308,0.0444 0.41489,0.0534 0.0651,0.004 0.15707,0.0125 0.20455,0.0179 0.0474,0.005 0.11844,0.009 0.15768,0.009 l 0.0713,-8.9e-4 v -3.35635 -3.35638 l -0.0451,-0.0282 c -0.0248,-0.0155 -0.0569,-0.0345 -0.0713,-0.0422 -0.0145,-0.008 -0.0448,-0.025 -0.0675,-0.0385 -0.0824,-0.0492 -0.39553,-0.15833 -0.52113,-0.18145 -0.0735,-0.0136 -0.12691,-0.0173 -0.27957,-0.0199 -0.0426,-8.8e-4 -0.076,-8.8e-4 -0.10307,-0.002 z m 9.14708,0.14836 c -0.004,0 -0.008,0.005 -0.0106,0.0119 -0.006,0.0162 -0.006,6.91525 6.6e-4,6.9215 0.003,0.003 0.51978,0.005 1.14893,0.005 0.99714,0 1.14447,-0.002 1.14815,-0.0109 0.003,-0.006 -0.37453,-0.76811 -0.85296,-1.72451 -0.47143,-0.94242 -0.86536,-1.73617 -0.87536,-1.76392 -0.0267,-0.0742 -0.0256,-0.15318 0.004,-0.21399 0.0277,-0.0586 0.079,-0.10926 0.14195,-0.14024 l 0.0504,-0.0248 0.47546,-0.003 c 0.41084,-0.002 0.476,-0.004 0.47968,-0.0134 0.003,-0.006 -8.9e-4,-0.0168 -0.007,-0.024 -0.006,-0.007 -0.017,-0.0247 -0.0239,-0.0391 -0.0156,-0.0331 -0.0374,-0.0721 -0.0471,-0.0844 -0.004,-0.005 -0.022,-0.0365 -0.0398,-0.0696 -0.0177,-0.033 -0.0393,-0.0725 -0.0479,-0.0877 -0.0394,-0.0692 -0.12169,-0.2154 -0.1355,-0.24047 -0.008,-0.0152 -0.0879,-0.15658 -0.17669,-0.314 -0.0888,-0.15742 -0.16829,-0.29868 -0.1767,-0.31389 -0.008,-0.0153 -0.0384,-0.0683 -0.0664,-0.11779 -0.0281,-0.0496 -0.0567,-0.10009 -0.0635,-0.11239 -0.007,-0.0123 -0.0391,-0.0698 -0.0715,-0.12764 -0.0604,-0.10776 -0.0813,-0.14524 -0.11205,-0.2012 -0.0185,-0.0337 -0.11093,-0.19824 -0.13737,-0.2446 -0.009,-0.0152 -0.0241,-0.0428 -0.0342,-0.0613 -0.0161,-0.0293 -0.0955,-0.17025 -0.1328,-0.23589 -0.0325,-0.0572 -0.13262,-0.23632 -0.14507,-0.25969 -0.008,-0.0145 -0.0172,-0.0313 -0.0213,-0.0376 -0.006,-0.0103 -0.11384,-0.20203 -0.15337,-0.27406 -0.0732,-0.13341 -0.11176,-0.19901 -0.1169,-0.19901 z" /><text
         xml:space="preserve"
         transform="matrix(0.21869277,0,0,0.21869277,608.95531,-620.76598)"
         id="text1007"
         style="font-style:normal;font-variant:normal;font-weight:bold;font-stretch:normal;font-size:96px;line-height:1.25;font-family:Merriweather;-inkscape-font-specification:'Merriweather, Bold';font-variant-ligatures:normal;font-variant-caps:normal;font-variant-numeric:normal;font-variant-east-asian:normal;white-space:pre;shape-inside:url(#rect1011);fill:#ffffff;fill-opacity:1;stroke:none"><tspan
           x="-563.76758"
           y="1415.0332"
           id="tspan1772">ArborSuite</tspan></text></g></g></svg>
