<?xml version="1.0" encoding="UTF-8" standalone="no"?>
<!-- Created with Inkscape (http://www.inkscape.org/) -->

<svg
   width="127.87293mm"
   height="127.84879mm"
   viewBox="0 0 127.87293 127.84879"
   version="1.1"
   id="svg5"
   xml:space="preserve"
   inkscape:version="1.2.1 (9c6d41e4, 2022-07-14)"
   sodipodi:docname="arborsuite.svg"
   xmlns:inkscape="http://www.inkscape.org/namespaces/inkscape"
   xmlns:sodipodi="http://sodipodi.sourceforge.net/DTD/sodipodi-0.dtd"
   xmlns="http://www.w3.org/2000/svg"
   xmlns:svg="http://www.w3.org/2000/svg"><sodipodi:namedview
     id="namedview7"
     pagecolor="#ffffff"
     bordercolor="#666666"
     borderopacity="1.0"
     inkscape:showpageshadow="2"
     inkscape:pageopacity="0.0"
     inkscape:pagecheckerboard="0"
     inkscape:deskcolor="#d1d1d1"
     inkscape:document-units="mm"
     showgrid="false"
     inkscape:zoom="0.36482843"
     inkscape:cx="2254.4844"
     inkscape:cy="-1178.6362"
     inkscape:window-width="1280"
     inkscape:window-height="684"
     inkscape:window-x="0"
     inkscape:window-y="25"
     inkscape:window-maximized="0"
     inkscape:current-layer="layer1" /><defs
     id="defs2" /><g
     inkscape:label="Layer 1"
     inkscape:groupmode="layer"
     id="layer1"
     transform="translate(242.24491,-425.71559)"><path
       id="path304"
       style="fill:#1b4d3e;fill-opacity:1;stroke-width:0.055027"
       d="m -178.21887,425.71567 c -11.29021,-0.0177 -22.40619,2.9492 -32.25208,8.67689 -9.10441,5.29634 -16.81543,12.82558 -22.32581,21.8002 -1.81449,2.9552 -3.58379,6.48067 -4.87464,9.71233 -6.11332,15.30474 -6.09737,32.35416 0.0443,47.59844 6.53663,16.22445 19.36839,29.02761 35.59354,35.51394 6.67969,2.67033 13.63534,4.16866 20.97801,4.51863 v -3.4e-4 c 1.20683,0.0575 5.41227,0.0226 6.54385,-0.0544 9.03899,-0.61479 17.02518,-2.76394 24.87229,-6.69399 17.66786,-8.84858 30.23306,-25.37096 34.05866,-44.78462 1.61948,-8.2182 1.61158,-16.58596 -0.0232,-24.81787 -2.15243,-10.83892 -7.06884,-20.91859 -14.29209,-29.30124 -10.313,-11.96836 -24.8026,-19.72476 -40.49237,-21.67627 -2.61054,-0.3247 -5.22508,-0.48761 -7.83052,-0.4917 z m 21.24402,18.06546 h 3.4e-4 c 0.22964,1.3e-4 0.72376,0.16775 0.89775,0.30462 0.16418,0.12914 0.4581,0.59162 0.9488,1.49256 0.0761,0.13965 0.27848,0.50018 0.4497,0.80101 0.17122,0.30084 0.34987,0.61701 0.39699,0.70296 0.0935,0.17055 0.57733,1.02784 0.71168,1.26114 0.0461,0.08 0.16652,0.29495 0.26768,0.47759 0.28188,0.50896 0.35148,0.63301 0.43796,0.78121 0.16543,0.28351 0.50219,0.88274 0.54879,0.97667 0.0267,0.0537 0.0966,0.1803 0.15584,0.28111 0.0592,0.10079 0.19413,0.33836 0.29992,0.52764 0.10579,0.18927 0.22754,0.40541 0.27037,0.48061 0.0429,0.0752 0.11666,0.20725 0.16423,0.2932 0.1216,0.21969 0.71201,1.26896 0.7802,1.38676 0.0898,0.15515 3.46996,6.15927 3.53523,6.27953 0.10904,0.20092 0.64379,1.15191 0.74998,1.33403 0.0579,0.0993 0.16976,0.30317 0.24887,0.45307 0.0791,0.14992 0.21199,0.38493 0.29522,0.52192 0.0832,0.137 0.15147,0.25727 0.15147,0.26734 0,0.0101 0.0762,0.14431 0.16927,0.29859 0.0931,0.15427 0.23635,0.40374 0.3184,0.55416 0.082,0.15041 0.19332,0.35268 0.24752,0.44938 0.0542,0.0967 0.12711,0.22874 0.16188,0.2932 0.0348,0.0645 0.13461,0.24018 0.22201,0.3906 0.0874,0.15042 0.21682,0.3789 0.28783,0.50782 0.18299,0.33227 0.23537,0.42536 0.8917,1.58894 0.75914,1.34579 0.76844,1.36755 0.76844,1.80994 0,0.30479 -0.0144,0.38103 -0.10781,0.5713 -0.1527,0.31093 -0.43205,0.5952 -0.71302,0.72612 l -0.2341,0.10915 -2.54748,0.0195 c -1.91281,0.0147 -2.55881,0.0311 -2.59416,0.0665 -0.0367,0.0367 0.94683,2.0367 4.46758,9.08361 2.48304,4.97001 4.53764,9.09705 4.56565,9.17127 0.028,0.0742 0.0506,0.28556 0.0511,0.46919 3.2e-4,0.27328 -0.0158,0.36459 -0.0893,0.50446 -0.22869,0.43507 -0.46967,0.66617 -0.84132,0.80606 l -0.25929,0.0974 h -7.26292 c -3.99446,0 -7.29073,0.0108 -7.32472,0.0238 -0.0559,0.0215 -0.0615,0.47139 -0.0615,4.69227 v 2.96696 h -6.5e-4 v 7.53665 c -4.6e-4,1.29678 -0.0163,2.17458 -0.0409,2.28148 -0.022,0.0956 -0.11265,0.32559 -0.20151,0.51118 -0.18763,0.39185 -0.27585,0.46058 -0.81144,0.63276 l -0.33216,0.1068 -19.55397,-0.002 c -15.99243,-0.001 -19.58385,-0.0112 -19.71754,-0.053 -0.0899,-0.0281 -0.30256,-0.11824 -0.47256,-0.20051 -0.36008,-0.17425 -0.43351,-0.27175 -0.60118,-0.79767 l -0.1058,-0.33216 -0.003,-1.97518 v -11.5857 h -6.5e-4 c -4.6e-4,-4.32274 0.0196,-4.00074 -0.35332,-4.00074 -0.36686,0 -2.48487,-0.19315 -2.76579,-0.25223 -0.14465,-0.0303 -0.40344,-0.0668 -0.57499,-0.0809 -0.17154,-0.014 -0.45245,-0.0573 -0.62435,-0.096 -0.17191,-0.0387 -0.40945,-0.0829 -0.52764,-0.0977 -0.11818,-0.0149 -0.34529,-0.0604 -0.50512,-0.10143 -0.15984,-0.041 -0.34875,-0.0749 -0.41983,-0.0749 -0.0711,0 -0.23068,-0.0341 -0.35433,-0.0759 -0.12364,-0.0418 -0.32574,-0.0939 -0.44937,-0.11587 -0.12363,-0.022 -0.25571,-0.0561 -0.29321,-0.0759 -0.0375,-0.0198 -0.17272,-0.0574 -0.30026,-0.0836 -0.32436,-0.0667 -2.1099,-0.66085 -2.58106,-0.85878 -0.37593,-0.15794 -0.51218,-0.21389 -0.93738,-0.3849 -0.10745,-0.0432 -0.28318,-0.1267 -0.39061,-0.18539 -0.10744,-0.0588 -0.3097,-0.1673 -0.44938,-0.24115 -0.68239,-0.36081 -1.53155,-0.8825 -2.0316,-1.24804 -0.38456,-0.28111 -1.25678,-0.96661 -1.36727,-1.07441 -0.0538,-0.0524 -0.26473,-0.23769 -0.46886,-0.4121 -0.40163,-0.34315 -0.42075,-0.36242 -0.88197,-0.89674 -0.43005,-0.49823 -0.78667,-0.98409 -1.40052,-1.907 -0.27161,-0.40837 -0.79273,-1.4223 -0.90346,-1.75788 -0.0284,-0.0859 -0.10675,-0.3057 -0.17398,-0.48834 -0.14563,-0.39565 -0.30925,-0.93183 -0.35533,-1.16308 -0.0182,-0.0916 -0.0539,-0.20524 -0.0793,-0.25256 -0.0254,-0.0474 -0.0689,-0.25362 -0.0967,-0.45845 -0.0278,-0.20482 -0.0757,-0.49577 -0.1068,-0.64619 -0.0971,-0.47032 -0.15965,-2.13981 -0.10681,-2.85647 0.0613,-0.83111 0.25136,-1.79817 0.51723,-2.63245 0.36308,-1.13937 0.54044,-1.57029 0.95282,-2.31473 0.24193,-0.43672 0.27316,-0.48745 0.65392,-1.06467 0.79969,-1.21228 2.17488,-2.62668 3.15975,-3.2501 0.10826,-0.0685 0.2256,-0.14897 0.26096,-0.17867 0.1036,-0.087 0.62477,-0.39836 0.95989,-0.57298 0.36613,-0.1908 0.4137,-0.22648 0.41175,-0.31067 -6.5e-4,-0.035 -0.16117,-0.23046 -0.35634,-0.4346 -0.42666,-0.44625 -0.79511,-0.86196 -0.95249,-1.07441 -0.6795,-0.9172 -1.31524,-1.93012 -1.42505,-2.27073 -0.0269,-0.0833 -0.0615,-0.16892 -0.0772,-0.19043 -0.107,-0.14607 -0.41842,-1.25384 -0.46684,-1.66082 -0.15602,-1.31146 -0.0463,-2.61621 0.29724,-3.53557 0.45266,-1.21135 0.46713,-1.2438 0.76743,-1.73672 0.57329,-0.94101 0.99074,-1.47305 1.66216,-2.11859 0.949,-0.91245 1.85786,-1.50869 3.29812,-2.16326 0.79789,-0.36262 1.97444,-0.71343 2.60693,-0.77751 0.13967,-0.0142 0.38562,-0.051 0.54678,-0.082 0.77256,-0.14819 2.47995,-0.13955 3.3794,0.0172 0.61069,0.10637 1.20571,0.23301 1.42605,0.30328 0.0967,0.0308 0.28116,0.0889 0.41008,0.12931 0.34518,0.10826 0.62385,0.21278 0.99649,0.37313 0.18265,0.0786 0.37615,0.15738 0.4299,0.17532 0.0538,0.0179 0.19417,0.0849 0.31235,0.14912 0.11819,0.0642 0.32045,0.17202 0.44938,0.23947 0.24328,0.12734 0.82093,0.47134 1.28197,0.7634 0.39377,0.24945 0.66902,0.58697 0.78926,0.96761 l 0.0971,0.30697 v 17.94522 c 0,15.93738 0.007,17.95056 0.0588,17.99391 0.0711,0.0589 1.00603,0.0251 1.67995,-0.0608 0.23638,-0.0302 0.6846,-0.0732 0.99616,-0.0957 0.31158,-0.0225 0.70704,-0.0657 0.87894,-0.096 0.17191,-0.0303 0.43566,-0.0661 0.58607,-0.0793 0.3806,-0.0335 1.1717,-0.16538 1.66384,-0.27742 0.22736,-0.0518 0.44756,-0.094 0.48968,-0.094 0.0421,0 0.18125,-0.0283 0.30932,-0.0628 0.12807,-0.0345 0.36481,-0.0948 0.52596,-0.134 0.65866,-0.16025 0.81569,-0.20345 1.13318,-0.31134 1.12585,-0.38257 1.80271,-0.66132 2.67242,-1.10027 0.66081,-0.33351 1.54699,-0.8766 1.83077,-1.12211 0.0694,-0.06 0.25799,-0.20915 0.41915,-0.33149 0.32916,-0.24989 1.44395,-1.34111 1.62253,-1.58827 0.0639,-0.0885 0.17914,-0.2431 0.25592,-0.34358 0.33644,-0.44026 0.82092,-1.23173 0.92529,-1.5117 0.0239,-0.0641 0.0987,-0.24825 0.16658,-0.40941 0.25908,-0.61553 0.43808,-1.26233 0.63276,-2.28585 0.0797,-0.41843 0.0885,-0.57828 0.0846,-1.48583 -0.004,-0.79975 -0.0176,-1.06249 -0.0662,-1.23059 -0.0339,-0.11756 -0.0731,-0.31036 -0.087,-0.42855 -0.0139,-0.11818 -0.0577,-0.33794 -0.0971,-0.48834 -0.0394,-0.15041 -0.0834,-0.36738 -0.0981,-0.48195 -0.0224,-0.17511 -0.32524,-1.09427 -0.44635,-1.35452 -0.0199,-0.043 -0.0922,-0.20962 -0.16055,-0.37079 -0.21654,-0.51084 -0.53481,-1.16104 -0.67876,-1.38608 -0.0765,-0.11961 -0.13905,-0.22619 -0.13905,-0.23678 0,-0.0288 -0.5734,-0.8644 -0.76441,-1.11404 -0.16773,-0.21923 -1.08837,-1.22811 -1.29306,-1.41698 -0.55383,-0.51107 -1.38289,-1.16165 -1.79684,-1.40994 -0.18418,-0.11048 -0.49498,-0.31433 -0.72007,-0.47255 -0.41779,-0.29365 -0.60294,-1.13105 -0.36508,-1.65108 0.11322,-0.24753 0.24439,-0.42132 0.40437,-0.5367 0.19366,-0.13967 0.75595,-0.50957 1.13453,-0.74593 0.47716,-0.29791 1.22016,-1.02677 1.5295,-1.50062 0.11924,-0.18265 0.28143,-0.43185 0.36038,-0.55383 0.079,-0.122 0.20665,-0.36828 0.28379,-0.54711 0.0772,-0.17883 0.16729,-0.3866 0.20017,-0.46181 0.12658,-0.28987 0.24896,-0.695 0.28951,-0.95719 0.0233,-0.15042 0.0756,-0.40367 0.11621,-0.56289 0.0626,-0.24569 0.0737,-0.43508 0.0732,-1.25041 -6.5e-4,-1.28326 -0.0564,-1.78081 -0.27507,-2.46452 -0.0378,-0.11818 -0.0819,-0.28552 -0.0977,-0.37146 -0.10501,-0.5682 -0.67949,-1.7093 -1.3572,-2.6956 -0.28342,-0.41249 -1.19181,-1.38677 -1.29373,-1.38742 -0.0235,-2e-4 -0.15217,-0.0835 -0.28615,-0.18539 -0.13397,-0.10188 -0.31844,-0.24111 -0.41008,-0.30933 -0.0916,-0.0682 -0.42452,-0.25765 -0.73956,-0.42083 -0.53443,-0.27679 -0.88715,-0.40448 -1.3609,-0.4927 -1.0393,-0.19354 -1.12785,-0.20441 -1.67996,-0.20051 -0.60625,0.004 -1.59257,0.11742 -2.1431,0.24618 -0.18114,0.0424 -0.47063,0.0775 -0.6509,0.0779 -0.36056,10e-4 -0.49869,-0.0498 -0.85812,-0.31671 -0.25855,-0.19201 -0.30604,-0.24946 -0.43527,-0.5273 -0.0946,-0.20342 -0.10953,-0.28346 -0.11083,-0.60555 -0.001,-0.334 0.01,-0.39248 0.10949,-0.58271 0.14253,-0.27122 0.45667,-0.57657 0.71437,-0.69456 0.11116,-0.0509 0.34282,-0.11749 0.51487,-0.14778 0.17204,-0.0303 0.3819,-0.0734 0.46617,-0.096 0.0843,-0.0227 0.3364,-0.0599 0.56021,-0.0826 0.22382,-0.0227 0.55443,-0.0666 0.73452,-0.0977 0.48557,-0.0839 1.27252,-0.0698 2.21196,0.0403 0.79545,0.0932 1.25047,0.17869 1.7777,0.33384 0.13967,0.0411 0.30665,0.0867 0.37112,0.10143 0.23567,0.0536 1.81334,0.8063 2.0971,1.00052 0.64869,0.44403 1.55048,1.19313 1.9876,1.65108 0.71461,0.7487 1.87015,2.55762 2.14546,3.35824 0.45516,1.32361 0.69102,2.13827 0.72378,2.50214 0.0135,0.15042 0.0532,0.43198 0.0883,0.62537 0.0838,0.46237 0.077,2.22316 -0.0101,2.63716 -0.0313,0.14856 -0.0752,0.46563 -0.0977,0.70463 -0.0378,0.40017 -0.0914,0.62395 -0.35298,1.46367 -0.15991,0.51328 -0.23928,0.70358 -0.5001,1.20102 -0.41739,0.79606 -0.5238,0.97231 -0.89371,1.48181 -0.18875,0.25997 -0.39599,0.54609 -0.46046,0.63577 -0.0971,0.13501 -0.58588,0.62354 -1.08415,1.08382 -0.20013,0.18486 -0.16074,0.25767 0.37112,0.68313 0.58282,0.46622 0.96144,0.84333 1.73806,1.73336 0.62093,0.71162 0.71637,0.83735 1.2457,1.63933 0.17729,0.2686 0.36923,0.55015 0.42688,0.62536 0.1787,0.23317 1.09489,2.14417 1.20808,2.51995 0.0582,0.19339 0.14648,0.48335 0.19614,0.64451 0.46319,1.5031 0.61424,2.50413 0.61294,4.0632 -4.5e-4,0.77147 -0.0157,1.10505 -0.0595,1.30884 -0.0324,0.15042 -0.0704,0.40544 -0.0846,0.56659 -0.0142,0.16116 -0.0578,0.41584 -0.0971,0.56626 -0.0392,0.15041 -0.0823,0.34361 -0.0957,0.42956 -0.0134,0.086 -0.0567,0.25328 -0.096,0.37146 -0.0394,0.11819 -0.11931,0.3732 -0.17767,0.56659 -0.10985,0.36413 -0.6072,1.52323 -0.73183,1.70549 -0.039,0.0571 -0.0709,0.11407 -0.0709,0.12661 0,0.0975 -0.52428,0.93146 -0.88633,1.41028 -1.10308,1.45879 -1.59877,1.97104 -2.74731,2.839 -1.34172,1.01392 -2.2568,1.53079 -4.10217,2.31708 -0.24437,0.10412 -1.67767,0.58491 -1.85561,0.62235 -0.15602,0.0328 -0.68945,0.17077 -0.9572,0.24752 -0.20824,0.0597 -0.59126,0.14633 -1.07441,0.2435 -0.12893,0.0259 -0.34867,0.0743 -0.48834,0.10714 -0.13967,0.0329 -0.35941,0.0758 -0.48833,0.0957 -0.12894,0.0199 -0.42797,0.0707 -0.66433,0.11284 -0.23637,0.0421 -0.47355,0.0766 -0.5273,0.0766 -0.0537,-2e-5 -0.30059,0.0337 -0.54879,0.0749 -0.2482,0.0412 -0.644,0.0865 -0.87927,0.10042 -0.23528,0.0139 -0.7444,0.0582 -1.13118,0.0987 -0.38678,0.0405 -0.97732,0.0849 -1.31253,0.0987 -0.33521,0.0138 -0.63423,0.0402 -0.66432,0.0588 -0.038,0.0235 -0.0511,0.70761 -0.0595,3.4281 h -6.5e-4 v 0.2566 c -0.001,0.54996 -0.003,1.03608 -0.005,1.76292 -0.005,2.72216 -0.005,4.06951 0.005,4.77018 v 3.58293 c -0.0304,0.64394 -0.0199,2.07657 0.0329,2.12935 0.0684,0.0684 35.89834,0.0684 35.96668,0 0.0348,-0.0348 0.047,-0.41774 0.047,-1.48114 v -1.43411 l -3.3e-4,-6.5e-4 v -3.64776 l 3.3e-4,-6.5e-4 v -4.58143 c 0,-0.21015 -2.8e-4,-0.32171 -3.3e-4,-0.51386 v -0.842 h -6.5e-4 c -0.003,-2.52376 -0.0145,-3.23864 -0.0514,-3.26924 -0.038,-0.0315 -2.08191,-0.0461 -7.41305,-0.0534 l -7.361,-0.0101 -0.20285,-0.1068 c -0.26246,-0.13838 -0.56595,-0.44412 -0.69893,-0.70363 -0.16176,-0.3157 -0.17607,-0.71998 -0.0393,-1.10531 0.0574,-0.16164 2.11577,-4.31486 4.57439,-9.22937 3.01415,-6.02495 4.45761,-8.94847 4.43097,-8.97512 -0.0254,-0.0254 -0.94675,-0.0462 -2.58678,-0.0587 -2.81892,-0.0216 -2.61327,-0.003 -3.02373,-0.2838 -0.25048,-0.17149 -0.30852,-0.24052 -0.44938,-0.5367 -0.0976,-0.20519 -0.12391,-0.31809 -0.13736,-0.58641 l -0.0168,-0.33183 0.68918,-1.52379 c 0.37903,-0.838 0.73884,-1.62928 0.79967,-1.75821 0.0608,-0.12893 0.14572,-0.31339 0.18842,-0.41008 0.13185,-0.29865 0.42093,-0.93153 0.63342,-1.38676 0.0602,-0.12893 0.438,-0.96262 0.83932,-1.85225 0.64723,-1.43474 0.90732,-2.00745 1.09388,-2.40643 0.0302,-0.0645 0.0981,-0.21398 0.15047,-0.33216 0.0524,-0.11818 0.16065,-0.3554 0.24081,-0.5273 0.0802,-0.1719 0.34827,-0.76089 0.59547,-1.30883 0.49337,-1.09358 0.60925,-1.3493 0.77046,-1.69945 0.0593,-0.12893 0.14284,-0.31338 0.18573,-0.41008 0.16687,-0.37617 0.28581,-0.6355 0.64552,-1.4069 0.1052,-0.22562 0.28696,-0.62809 0.4037,-0.89473 0.24293,-0.55485 0.4036,-0.74837 0.76307,-0.91857 0.33788,-0.15997 0.59473,-0.20013 0.93805,-0.14677 0.45194,0.0703 0.74442,0.30609 1.00186,0.80774 0.0976,0.19011 0.12355,0.29541 0.13804,0.55752 0.0159,0.28678 0.006,0.35068 -0.0863,0.56659 -0.0575,0.13383 -0.12032,0.27167 -0.13904,0.30631 -0.0187,0.0346 -0.44116,0.96583 -0.93906,2.06888 -0.49789,1.10305 -0.95848,2.12053 -1.02302,2.26133 -0.15896,0.34678 -0.27768,0.60843 -0.3822,0.842 -0.16301,0.36427 -0.34146,0.75627 -0.60522,1.32831 -0.0495,0.10744 -0.12832,0.28317 -0.17498,0.39061 -0.0792,0.18236 -0.1141,0.25999 -0.31202,0.69354 -0.33155,0.72629 -0.4869,1.06946 -0.58775,1.2991 -0.0472,0.10744 -0.12633,0.28317 -0.17598,0.3906 -0.10589,0.22919 -0.24986,0.54651 -0.37247,0.82051 -0.048,0.10742 -0.12738,0.28315 -0.17599,0.3906 -0.0486,0.10744 -0.12756,0.28351 -0.17565,0.39094 -0.0481,0.10744 -0.12935,0.28738 -0.18069,0.4 -0.0513,0.11263 -0.13924,0.30616 -0.19514,0.4299 -0.0559,0.12374 -0.13378,0.29525 -0.1733,0.3812 -0.0395,0.086 -0.11516,0.25294 -0.16793,0.37112 -0.0528,0.11818 -0.16954,0.37239 -0.25928,0.56491 -0.0898,0.19253 -0.16603,0.39445 -0.16928,0.44904 l -0.006,0.0994 2.57838,0.0195 2.57872,0.0195 0.26432,0.11218 c 0.29933,0.12664 0.58621,0.40848 0.76072,0.74762 0.13135,0.25527 0.16258,0.65999 0.0742,0.96391 -0.0344,0.11855 -2.09299,4.27405 -4.57439,9.23441 -3.42069,6.83802 -4.50143,9.03111 -4.46926,9.06984 0.064,0.0769 11.87982,0.0757 11.94378,-10e-4 0.032,-0.0386 0.0465,-5.6565 0.0538,-21.0875 l 0.0101,-21.03477 0.10244,-0.21495 c 0.2331,-0.48791 0.81328,-0.85931 1.34209,-0.85946 z m -46.0948,6.48777 c -0.42219,-10e-4 -0.54471,0.015 -0.753,0.0678 -0.16913,0.0429 -0.42188,0.0973 -0.56155,0.12091 -0.59242,0.10016 -1.81709,0.51159 -2.20121,0.73955 -0.13235,0.0785 -0.2706,0.16033 -0.30765,0.18204 -0.51941,0.30439 -0.7504,0.46522 -1.16341,0.80942 -0.26859,0.22384 -0.58406,0.52023 -0.70094,0.65862 -0.11686,0.13839 -0.2315,0.26933 -0.25457,0.29084 -0.0231,0.0215 -0.0707,0.0838 -0.1058,0.13872 -0.0351,0.0548 -0.15051,0.19566 -0.25659,0.31268 -0.17834,0.1967 -0.33035,0.45839 -0.66299,1.14124 -0.0709,0.14554 -0.12897,0.28721 -0.12897,0.3147 0,0.0275 -0.0439,0.21615 -0.0974,0.41915 -0.0702,0.2659 -0.10912,0.56037 -0.14006,1.05292 -0.0492,0.78194 -0.0207,1.09068 0.16423,1.7562 0.13998,0.50376 0.63134,1.50328 0.96862,1.97047 0.43262,0.59928 1.40447,1.61116 1.90968,1.98862 0.0923,0.0689 0.26802,0.20085 0.39061,0.29287 0.37113,0.27859 0.69826,0.62545 0.81277,0.86215 0.0916,0.18934 0.10672,0.2679 0.10412,0.55282 -0.003,0.45288 -0.10061,0.70221 -0.39262,1.00623 -0.2541,0.26455 -0.37996,0.32752 -1.06333,0.53334 -0.4917,0.14811 -0.70595,0.22704 -1.08515,0.39866 -0.11344,0.0514 -0.21475,0.093 -0.22502,0.093 -0.074,0 -0.99607,0.5694 -1.31757,0.81345 -0.51756,0.39286 -1.5166,1.37952 -1.84689,1.82404 -0.50696,0.68232 -1.07043,1.64098 -1.25106,2.12901 -0.0278,0.0752 -0.11315,0.28518 -0.18977,0.46651 -0.0766,0.18133 -0.15807,0.4317 -0.18068,0.55651 -0.0227,0.12484 -0.0645,0.29344 -0.093,0.37448 -0.0286,0.0811 -0.064,0.24364 -0.0789,0.36139 -0.0149,0.11775 -0.0528,0.30651 -0.0843,0.41948 -0.22788,0.81898 -0.21622,2.73919 0.0239,3.95472 0.0769,0.38962 0.35807,1.28965 0.57365,1.83715 0.3964,1.00671 1.07113,2.03746 2.0212,3.08653 0.39307,0.43404 1.07507,1.0846 1.29271,1.23361 0.12307,0.0843 0.27201,0.18845 0.33115,0.23141 0.10377,0.0754 0.61309,0.42787 0.73385,0.50781 0.54771,0.36259 0.79975,0.50773 1.37971,0.79397 0.70966,0.35024 0.79219,0.38811 1.286,0.59312 0.16116,0.0669 0.32816,0.13804 0.37112,0.15786 0.096,0.0443 0.68603,0.23174 1.71892,0.54644 0.12893,0.0393 0.29625,0.0827 0.37146,0.0967 0.0752,0.014 0.25093,0.058 0.3906,0.0977 0.54756,0.15559 0.89077,0.23638 1.1577,0.27271 0.15324,0.0209 0.32621,0.056 0.3849,0.0783 0.16467,0.0626 1.47334,0.23082 2.15923,0.27742 0.3384,0.023 0.81722,0.065 1.06433,0.0934 0.24711,0.0284 0.61637,0.0489 0.8205,0.0457 l 0.37112,-0.006 v -17.46273 -17.46292 l -0.23443,-0.14644 c -0.12892,-0.0807 -0.29591,-0.1796 -0.37112,-0.21931 -0.0752,-0.0397 -0.23294,-0.12977 -0.35063,-0.20017 -0.42859,-0.25637 -2.0584,-0.82378 -2.71206,-0.9441 -0.38268,-0.0704 -0.66047,-0.0904 -1.45493,-0.10411 -0.22165,-0.005 -0.39529,-0.007 -0.53603,-0.007 z m 47.60012,0.77179 c -0.0174,0 -0.0421,0.0278 -0.0551,0.0618 -0.0322,0.0848 -0.0298,35.97913 0.003,36.01169 0.0143,0.0144 2.70495,0.0259 5.97894,0.0259 5.189,0 5.95547,-0.007 5.97457,-0.0571 0.0122,-0.0319 -1.94904,-3.99643 -4.43869,-8.97244 -2.45324,-4.90327 -4.50318,-9.03297 -4.55524,-9.17732 -0.13914,-0.38583 -0.1329,-0.79698 0.0168,-1.11337 0.14412,-0.30464 0.4115,-0.56862 0.73888,-0.72982 l 0.26164,-0.12897 2.47392,-0.0118 c 2.13794,-0.0105 2.47733,-0.02 2.49643,-0.0699 0.0122,-0.0317 -0.005,-0.0881 -0.0373,-0.12494 -0.0327,-0.0369 -0.0884,-0.12833 -0.12393,-0.20353 -0.0812,-0.17196 -0.19476,-0.37462 -0.24552,-0.43896 -0.0214,-0.0271 -0.11447,-0.18981 -0.20689,-0.36172 -0.0924,-0.1719 -0.20475,-0.37722 -0.24953,-0.4561 -0.20476,-0.3603 -0.63311,-1.1209 -0.70497,-1.2514 -0.0437,-0.0794 -0.45759,-0.81454 -0.91958,-1.63361 -0.46197,-0.81906 -0.87584,-1.55411 -0.91958,-1.63328 -0.0437,-0.0792 -0.19931,-0.35475 -0.34559,-0.61261 -0.14628,-0.25785 -0.29494,-0.52096 -0.33049,-0.58472 -0.0355,-0.0638 -0.20341,-0.36282 -0.37247,-0.66433 -0.31437,-0.56068 -0.42295,-0.75574 -0.58304,-1.04687 -0.0965,-0.17549 -0.57713,-1.03132 -0.71471,-1.27257 -0.0449,-0.0787 -0.12491,-0.22236 -0.178,-0.31906 -0.0837,-0.15229 -0.49678,-0.88568 -0.6912,-1.22722 -0.16936,-0.29753 -0.69021,-1.22959 -0.75501,-1.35116 -0.0401,-0.0752 -0.0897,-0.16289 -0.11016,-0.19513 -0.0339,-0.0534 -0.59222,-1.05126 -0.798,-1.42606 -0.38108,-0.69407 -0.58146,-1.03545 -0.60824,-1.03545 h -3.4e-4 z m -44.91024,61.69741 h 0.0333 l 0.46214,0.3137 v 4.86993 c 0.29714,-0.29714 0.66031,-0.54482 1.08952,-0.74291 0.44022,-0.2091 0.91343,-0.3137 1.41967,-0.3137 1.05652,0 1.91504,0.37441 2.57536,1.12278 0.67133,0.73736 1.0069,1.87081 1.0069,3.40056 0,0.94646 -0.19794,1.80498 -0.59413,2.57535 -0.39619,0.77039 -0.96854,1.38089 -1.71691,1.83211 -0.73736,0.44022 -1.59587,0.66063 -2.57535,0.66063 -0.86943,0 -1.62336,-0.0715 -2.26167,-0.21461 -0.63831,-0.15407 -1.04543,-0.29171 -1.22151,-0.41277 v -11.67139 l -1.23797,-0.19782 v -0.85846 z m 48.71551,0.16525 c 0.44021,0 0.77579,0.12094 1.0069,0.36306 0.23111,0.23111 0.3466,0.52274 0.3466,0.87491 0,0.44022 -0.13185,0.79248 -0.39598,1.05661 -0.26413,0.26412 -0.63308,0.39631 -1.10631,0.39631 h -0.0164 c -0.3962,0 -0.70963,-0.11583 -0.94074,-0.34694 -0.23112,-0.23111 -0.34695,-0.52819 -0.34695,-0.89136 0,-0.41821 0.13219,-0.76469 0.39632,-1.03983 0.26412,-0.27513 0.61639,-0.41276 1.05661,-0.41276 z m -18.10946,0.95753 c 0.53927,0 1.01247,0.0385 1.41967,0.11553 0.41821,0.077 0.86961,0.18163 1.35384,0.31369 0.28615,0.077 0.50078,0.12644 0.64384,0.14845 l -0.0991,2.88905 h -1.32092 l -0.34661,-2.03059 c -0.0991,-0.099 -0.29699,-0.19274 -0.59413,-0.28078 -0.29715,-0.0991 -0.62726,-0.14845 -0.99044,-0.14845 -0.66033,0 -1.16113,0.15399 -1.5023,0.46214 -0.33016,0.29714 -0.49539,0.69881 -0.49539,1.20506 0,0.4072 0.12128,0.75946 0.3634,1.0566 0.25313,0.29715 0.55565,0.55028 0.90782,0.75938 0.35218,0.1981 0.90783,0.48427 1.6672,0.85846 0.61631,0.29714 1.1447,0.58876 1.58491,0.8749 0.44022,0.28615 0.81975,0.66022 1.1389,1.12244 0.31916,0.45122 0.47893,0.98507 0.47893,1.60137 0,0.6053 -0.15399,1.18309 -0.46214,1.73336 -0.29714,0.55027 -0.7925,1.00713 -1.48584,1.3703 -0.68232,0.36318 -1.5572,0.54476 -2.62472,0.54476 -0.59429,0 -1.12814,-0.0497 -1.60137,-0.14878 -0.47323,-0.0991 -1.00163,-0.2309 -1.58491,-0.39598 -0.38519,-0.11005 -0.64377,-0.17069 -0.77584,-0.1817 l 0.14879,-3.05395 h 1.33705 l 0.36306,2.12934 c 0.14307,0.15407 0.3962,0.29171 0.75937,0.41277 0.37419,0.12106 0.79799,0.1817 1.27123,0.1817 0.73736,0 1.28756,-0.15978 1.65074,-0.47894 0.37418,-0.33016 0.56122,-0.78667 0.56122,-1.36996 0,-0.38519 -0.11005,-0.71531 -0.33015,-0.99045 -0.22011,-0.28613 -0.52264,-0.53927 -0.90783,-0.75937 -0.38518,-0.23111 -0.91358,-0.49548 -1.58491,-0.79263 -0.91344,-0.4182 -1.67283,-0.91321 -2.27812,-1.48549 -0.59429,-0.58329 -0.89137,-1.37026 -0.89137,-2.36075 0,-0.6163 0.15978,-1.17196 0.47893,-1.6672 0.31916,-0.50624 0.79237,-0.90246 1.41968,-1.1886 0.63831,-0.29715 1.41405,-0.44568 2.32749,-0.44568 z m -48.4841,0.0823 h 2.52566 l 3.81332,11.17601 0.95754,0.16524 v 0.99044 h -4.86994 v -0.99044 l 1.2383,-0.16524 -0.64383,-2.1458 h -4.27581 l -0.64384,2.16225 1.33739,0.14879 v 0.99044 h -4.20964 l -0.0164,-0.99044 0.99044,-0.16524 z m 71.89238,0.72646 h 1.32093 l 0.0658,2.42658 h 2.52565 v 1.27122 h -2.50919 v 4.63887 c 0,0.61629 0.0167,1.05101 0.0497,1.30413 0.033,0.25313 0.10456,0.41802 0.21461,0.49506 0.11005,0.066 0.30254,0.0991 0.57768,0.0991 0.27513,0 0.5613,-0.0272 0.85845,-0.0823 0.29715,-0.066 0.54482,-0.14336 0.74292,-0.23141 l 0.31369,0.92463 c -0.30816,0.2311 -0.75956,0.44028 -1.35385,0.62737 -0.59429,0.1871 -1.17208,0.28045 -1.73336,0.28045 -0.69334,0 -1.20504,-0.15944 -1.5352,-0.4786 -0.33017,-0.31916 -0.49506,-0.82541 -0.49506,-1.51875 v -6.05853 h -1.07306 v -0.85845 c 0.088,-0.033 0.24748,-0.0879 0.4786,-0.16491 0.2311,-0.088 0.40724,-0.15959 0.5283,-0.21461 0.18709,-0.14308 0.34653,-0.39075 0.47859,-0.74292 0.0991,-0.23112 0.28064,-0.80346 0.54477,-1.71691 z m -71.05038,0.77584 -0.31369,1.30413 -1.46938,5.0681 h 3.63197 l -1.552,-5.08456 z m 13.07427,1.41966 c 0.24213,0 0.4513,0.0331 0.62739,0.0991 v 2.47628 c -0.33016,-0.23111 -0.73183,-0.3466 -1.20506,-0.3466 -0.80339,0 -1.50247,0.21463 -2.09676,0.64384 v 5.41469 l 1.91506,0.14845 v 0.97399 h -5.33208 v -0.97399 l 1.08952,-0.13199 v -6.50421 l -1.05661,-0.29724 v -1.1389 l 2.55891,-0.34694 h 0.0494 l 0.41277,0.33015 v 0.3634 l -0.0494,1.33705 h 0.0494 c 0.077,-0.2201 0.25862,-0.48959 0.54477,-0.80875 0.28613,-0.33016 0.64385,-0.61633 1.07306,-0.85845 0.44021,-0.25312 0.91342,-0.37986 1.41967,-0.37986 z m 16.42547,0 c 1.38668,0 2.45437,0.42927 3.20273,1.28769 0.75938,0.84741 1.1389,2.00301 1.1389,3.46672 0,1.04551 -0.20918,1.93707 -0.62739,2.67443 -0.40719,0.72636 -0.95739,1.27111 -1.65073,1.63429 -0.68234,0.35217 -1.43626,0.5283 -2.26167,0.5283 -1.37567,0 -2.44303,-0.4238 -3.2024,-1.27122 -0.75938,-0.85842 -1.13924,-2.01947 -1.13924,-3.48318 0,-1.03451 0.20373,-1.91517 0.61093,-2.64152 0.41821,-0.72636 0.97386,-1.2711 1.6672,-1.63428 0.69334,-0.37419 1.44727,-0.56123 2.26167,-0.56123 z m 11.93537,0 c 0.24212,0 0.4513,0.0331 0.62739,0.0991 v 2.47628 c -0.33016,-0.23111 -0.73183,-0.3466 -1.20506,-0.3466 -0.80339,0 -1.50247,0.21463 -2.09676,0.64384 v 5.41469 l 1.91506,0.14845 v 0.97399 h -5.33208 v -0.97399 l 1.08952,-0.13199 v -6.50421 l -1.05661,-0.29724 v -1.1389 l 2.55891,-0.34694 h 0.0494 l 0.41277,0.33015 v 0.3634 l -0.0494,1.33705 h 0.0494 c 0.077,-0.2201 0.25862,-0.48959 0.54476,-0.80875 0.28614,-0.33016 0.64386,-0.61633 1.07307,-0.85845 0.44021,-0.25312 0.91342,-0.37986 1.41967,-0.37986 z m 38.94238,0 c 1.10054,0 1.94815,0.29163 2.54244,0.87491 0.59429,0.57229 0.90227,1.3923 0.92428,2.45983 0,0.72636 -0.0439,1.26565 -0.13199,1.61783 h -5.36499 c 0.044,1.00148 0.28045,1.78267 0.70967,2.34395 0.42921,0.55026 1.04005,0.82553 1.83244,0.82553 0.42921,0 0.86937,-0.0715 1.32059,-0.21461 0.46222,-0.14307 0.82539,-0.31375 1.08952,-0.51185 l 0.41277,0.90816 c -0.29715,0.31916 -0.78125,0.61623 -1.45258,0.89137 -0.66032,0.26413 -1.33181,0.39631 -2.01414,0.39631 -1.45271,0 -2.53676,-0.4238 -3.25212,-1.27122 -0.70434,-0.85842 -1.0566,-2.02491 -1.0566,-3.49964 0,-0.99048 0.18158,-1.849 0.54476,-2.57536 0.37418,-0.72635 0.89713,-1.282 1.56845,-1.6672 0.67133,-0.38518 1.44707,-0.57801 2.3275,-0.57801 z m -13.81719,0.0164 h 0.0333 l 0.46214,0.33015 v 7.94069 l 1.10599,0.13199 v 0.99045 h -4.60562 v -0.99045 l 1.15535,-0.14878 v -6.47097 l -1.17215,-0.31369 v -1.10599 z m -10.91168,0.0168 h 0.0164 l 0.33015,0.23108 v 5.81067 c 0,0.8034 0.0991,1.36484 0.29723,1.68399 0.1981,0.31916 0.56672,0.4786 1.10598,0.4786 0.64932,0 1.25471,-0.25313 1.81598,-0.75937 v -6.05854 l -1.10631,-0.24753 v -0.92428 l 2.98813,-0.21462 h 0.0329 l 0.39632,0.23108 v 8.12171 h 0.92428 l -0.0164,0.94108 c -0.044,0.011 -0.24741,0.055 -0.61059,0.13198 -0.36318,0.077 -0.79789,0.11554 -1.30414,0.11554 -0.36317,0 -0.62754,-0.077 -0.79262,-0.23107 -0.16508,-0.15407 -0.24753,-0.38506 -0.24753,-0.69321 v -0.44568 c -0.29714,0.36318 -0.7155,0.68785 -1.25476,0.97399 -0.53926,0.27513 -1.07823,0.41277 -1.6175,0.41277 -1.05651,0 -1.81044,-0.26982 -2.26166,-0.80909 -0.45122,-0.55026 -0.67675,-1.45274 -0.67675,-2.70734 v -4.65533 l -0.82554,-0.23107 v -0.94074 z m 24.44843,1.02336 c -0.53926,0 -0.95762,0.21463 -1.25477,0.64384 -0.29714,0.42921 -0.46203,1.18315 -0.49505,2.26167 h 3.18594 c 0.022,-0.30815 0.033,-0.54492 0.033,-0.71 0,-1.46372 -0.48956,-2.19551 -1.46904,-2.19551 z m -50.69639,0.0164 c -1.27663,0 -1.91473,1.19954 -1.91473,3.59871 0,1.25462 0.15399,2.21227 0.46214,2.8726 0.31916,0.64932 0.81451,0.97399 1.48584,0.97399 1.24361,0 1.86535,-1.19955 1.86535,-3.59872 0,-1.25461 -0.14854,-2.20682 -0.44568,-2.85614 -0.29714,-0.66032 -0.78159,-0.99044 -1.45292,-0.99044 z m -10.23493,0.37986 c -0.33016,0 -0.64393,0.077 -0.94108,0.23107 -0.28613,0.14306 -0.51712,0.30796 -0.69321,0.49505 v 6.02562 c 0.066,0.12107 0.22003,0.2202 0.46214,0.29724 0.24212,0.077 0.51739,0.11553 0.82554,0.11553 0.70435,0 1.26545,-0.32467 1.68366,-0.97398 0.4292,-0.66032 0.64383,-1.63434 0.64383,-2.92196 0,-1.11155 -0.18158,-1.93157 -0.54476,-2.45983 -0.36317,-0.53926 -0.84183,-0.80874 -1.43612,-0.80874 z" /></g></svg>
